# xmcd
#
# Track frame offsets: 
#        150
#        23785
#        52250
#        65401
#        82449
#        96139
#        141724
#        171896
#
# Disc length: 2585 seconds
#
# Revision: 0
# Processed by: cddbd v1.5.2PL0 Copyright (c) Steve Scherf et al.
# Submitted via: ExactAudioCopy v0.99pb5
#
DISCID=7a0a1708
DTITLE=The Tony Redman Band - Live in Austin
DYEAR=1999
DGENRE=Blues
TTITLE0=Down So Long
TTITLE1=Smelling Like a Man's Cologne
TTITLE2=MatchBox Blues
TTITLE3=Don't Think About It Baby
TTITLE4=Roosters Blues
TTITLE5=Little Rain
TTITLE6=Mellow Down Easy
TTITLE7=No Pistols Blues
EXTD=
EXTT0=
EXTT1=
EXTT2=
EXTT3=
EXTT4=
EXTT5=
EXTT6=
EXTT7=
PLAYORDER=
